<?xml version="1.0" standalone="no"?><!DOCTYPE svg PUBLIC "-//W3C//DTD SVG 1.1//EN" "http://www.w3.org/Graphics/SVG/1.1/DTD/svg11.dtd"><svg t="1583996378858" class="icon" viewBox="0 0 1070 1024" version="1.1" xmlns="http://www.w3.org/2000/svg" p-id="2140" xmlns:xlink="http://www.w3.org/1999/xlink" width="208.984375" height="200"><defs><style type="text/css"></style></defs><path d="M958.440727 744.727273A27.508364 27.508364 0 0 1 930.909091 717.195636 65.559273 65.559273 0 0 0 865.349818 651.636364H205.195636A65.559273 65.559273 0 0 0 139.636364 717.195636C139.636364 732.416 127.325091 744.727273 112.104727 744.727273H54.109091c-4.887273 15.569455-7.563636 28.974545-7.563636 46.545454v8.378182C46.545455 923.042909 147.502545 1024 270.894545 1024h528.407273c123.392 0 224.349091-100.957091 224.349091-224.349091V791.272727c0-17.570909-2.699636-30.976-7.586909-46.545454h-57.623273" fill="#F2D5A5" p-id="2141"></path><path d="M736.605091 651.636364A231.261091 231.261091 0 0 0 768 535.272727c0-128.535273-104.192-232.727273-232.727273-232.727272s-232.727273 104.192-232.727272 232.727272c0 42.449455 11.543273 82.106182 31.394909 116.363637h402.664727M1066.868364 646.050909c-12.474182-171.496727-57.181091-297.518545-115.851637-390.050909A231.842909 231.842909 0 0 0 884.363636 418.909091c0 111.266909 78.126545 204.171636 182.504728 227.141818M857.018182 142.405818a470.341818 470.341818 0 0 0-201.006546-109.521454A162.210909 162.210909 0 0 0 651.636364 69.818182a162.909091 162.909091 0 0 0 162.909091 162.909091 161.978182 161.978182 0 0 0 96.768-32.069818 559.266909 559.266909 0 0 0-54.295273-58.251637M168.680727 189.184A162.048 162.048 0 0 0 279.272727 232.727273a162.909091 162.909091 0 0 0 162.909091-162.909091c0-14.545455-2.094545-28.578909-5.678545-42.007273a470.690909 470.690909 0 0 0-222.976 114.594909 552.843636 552.843636 0 0 0-44.846546 46.778182M186.181818 418.909091a231.842909 231.842909 0 0 0-66.653091-162.909091C60.858182 348.532364 16.151273 474.554182 3.677091 646.050909 108.032 623.080727 186.181818 530.176 186.181818 418.909091" fill="#ECF0F1" p-id="2142"></path><path d="M407.272727 837.818182a58.181818 58.181818 0 0 1-58.181818-58.181818V651.636364h116.363636v128a58.181818 58.181818 0 0 1-58.181818 58.181818M663.272727 837.818182a58.181818 58.181818 0 0 1-58.181818-58.181818V651.636364h116.363636v128a58.181818 58.181818 0 0 1-58.181818 58.181818" fill="#130100" p-id="2143"></path><path d="M884.363636 418.909091a231.866182 231.866182 0 0 1 66.327273-162.536727 594.152727 594.152727 0 0 0-39.377454-55.714909A161.978182 161.978182 0 0 1 814.545455 232.727273a162.909091 162.909091 0 0 1-162.909091-162.909091c0-12.567273 1.582545-24.715636 4.282181-36.468364a478.138182 478.138182 0 0 0-219.322181-5.143273c3.514182 13.312 5.585455 27.205818 5.585454 41.611637a162.909091 162.909091 0 0 1-162.909091 162.909091 162.094545 162.094545 0 0 1-110.592-43.543273 578.327273 578.327273 0 0 0-49.105454 66.885818A231.889455 231.889455 0 0 1 186.181818 418.909091c0 111.197091-78.056727 204.055273-182.318545 227.095273A1276.811636 1276.811636 0 0 0 0 744.727273h112.104727C127.325091 744.727273 139.636364 732.416 139.636364 717.195636A65.559273 65.559273 0 0 1 205.195636 651.636364h128.744728A231.261091 231.261091 0 0 1 302.545455 535.272727c0-128.535273 104.192-232.727273 232.727272-232.727272s232.727273 104.192 232.727273 232.727272a231.261091 231.261091 0 0 1-31.394909 116.363637h128.744727A65.559273 65.559273 0 0 1 930.909091 717.195636c0 15.220364 12.311273 27.531636 27.531636 27.531637H1070.545455c0-34.629818-1.419636-67.351273-3.816728-98.699637C962.443636 622.987636 884.363636 530.129455 884.363636 418.909091" fill="#BC1C05" p-id="2144"></path></svg>