<?xml version="1.0" standalone="no"?><!DOCTYPE svg PUBLIC "-//W3C//DTD SVG 1.1//EN" "http://www.w3.org/Graphics/SVG/1.1/DTD/svg11.dtd"><svg t="1583996368607" class="icon" viewBox="0 0 1024 1024" version="1.1" xmlns="http://www.w3.org/2000/svg" p-id="2017" xmlns:xlink="http://www.w3.org/1999/xlink" width="200" height="200"><defs><style type="text/css"></style></defs><path d="M507.162 67.59c-48.59 5.076-99.69 30.243-157.978 77.8-7.063 5.763-45.614 37.819-54.344 45.187a58167.81 58167.81 0 0 1-26.508 22.356c-50.809 42.831-75.405 80.663-85.978 132.23-12.411 60.546-2.875 143.303 16.512 143.282 7.099-0.01 9.152-2.224 31.795-34.301 45.72-64.768 101.412-117.107 149.983-140.946 26.248-12.884 28.098-16.706 21.755-44.925-24.38-108.44 77.91-188.401 177.374-138.658 65.908 32.96 85.553 72.098 72.955 145.329-6.172 35.866-6.003 36.23 24.17 51.725 75.066 38.55 124.817 85.076 166.898 156.078 11.986 20.221 18.834 24.576 26.279 16.709 9.244-9.772 15.109-48.113 11.65-76.168-6.497-52.725-42.38-149.074-72.122-193.659-37.993-56.95-118.114-121.838-176.771-143.165-45.768-16.64-87.324-22.881-125.67-18.875m1.61 66.555c-52.872 6.492-90.307 48.036-90.432 100.352-0.044 17.572 1.628 24.827 6.702 29.094 8.532 7.181 15.068 1.39 24.753-21.926 16.757-40.346 26.096-57.106 33.105-59.42 11.008-3.633 17.83 3.039 27.769 27.156 9.213 22.357 13.596 26.898 25.344 26.279 4.774-0.251 13.197-9.864 21.555-24.604 18.97-33.457 32.08-33.662 40.89-0.643 9.941 37.245 18.645 54.784 27.193 54.784 13.46 0 15.365-44.014 2.983-68.98-17.094-34.457-79.908-67-119.862-62.092m29.842 4.667c20.7 3.927 35.164 11.3 61.716 31.455 23.519 17.853 31.022 30.96 32.994 57.633 2.288 30.968-9.137 41.464-20.004 18.373-3.467-7.368-5.655-13.86-14.664-43.52-8.824-29.05-22.72-27.039-42.655 6.182-19.236 32.052-29.785 32.136-42.603 0.343-9.838-24.399-18.565-33.175-29.945-30.11-8.547 2.301-13.15 9.912-34.04 56.307-9.674 21.48-12.275 25.134-17.89 25.134-13.823 0-13.856-41.16-0.055-69.632 18.887-38.968 63.14-60.513 107.146-52.165m-57.846 87.483c-4.319 2.844-9.505 11.909-15.731 27.5-14.495 36.292-4.29 42.383 58.388 34.846 9.255-1.114 10.768-1.016 23.552 1.52 54.39 10.796 60.634 5.924 45.41-35.42-11.095-30.12-21.75-29.821-40.006 1.127-14.218 24.105-24.798 22.018-43.453-8.566-14-22.953-19.256-26.872-28.16-21.007m14.098 5.473c1.879 1.877 6.287 8.09 9.797 13.801 6.94 11.292 15.905 22.943 22.569 29.327 2.322 2.228 4.224 4.575 4.224 5.22 0 6.464-53.066 11.482-63.631 6.019-8.671-4.483-7.934-14.277 2.941-39.114 8.085-18.458 15.931-23.424 24.1-15.253m85.652 6.467c6.935 4.858 18.44 40.24 15.442 47.482-3.804 9.183-42.793 6.91-57.63-3.358l-2.855-1.977 6.95-7.331c3.823-4.032 10.177-12.58 14.119-18.996 9.92-16.14 16.922-20.759 23.974-15.82M492.544 313.4c-42.621 1.616-81.126 10.09-107.814 23.724-38.385 19.612-102.106 79.25-102.106 95.562 0 6.108 4.073 5.348 27.71-5.163 75.404-33.534 156.078-48.815 257.474-48.763 91.354 0.043 131.97 12.777 190.671 59.773 30.073 24.08 38.73 27.22 30.56 11.093-17.678-34.88-79.963-84.332-137.775-109.387-37.69-16.332-104.504-29.888-136.704-27.732-1.126 0.074-11.034 0.476-22.016 0.893m48.333 86.06c-39.03 2.355-86.567 7.298-102.705 10.68-3.714 0.778-13.294 2.599-21.284 4.045-58.537 10.606-129.367 43.405-140.388 65.009-3.642 7.137-4.234 14.522-2.593 32.294 6.505 70.354 3.013 94.336-22.31 153.25-17.902 41.653-17.961 42.454-6.515 90.974 12.352 52.375 30.103 89.938 55.56 117.568 20.047 21.757 37.017 29.53 101.066 46.285 10.652 2.785 24.611 8.43 49.546 20.027 69.299 32.238 111.915 27.942 193.866-19.533 104.033-60.27 122.17-74.127 140.068-107.003 17.728-32.566 30.029-91.08 24.274-115.482-2.43-10.311-9.667-31.759-13.538-40.128-13.662-29.53-14.254-33.902-9.92-73.254 5.059-45.888 4.511-76.575-1.587-89.108-4.738-9.731-23.49-27.339-44.577-41.849-5.632-3.873-13.235-9.436-16.896-12.36-29.85-23.828-52.058-32.63-95.744-37.944-34.76-4.229-58.181-5.171-86.323-3.471m81.213 11.52c20.89 2.534 33.02 5.555 43.234 10.767 8.701 4.44 6.873 6.229-9.472 9.275-47.924 8.93-91.147 44.196-78.03 63.66 6.751 10.017 16.61 8.345 33.107-5.617 29.957-25.354 56.929-29.975 83.855-14.364 22.129 12.828 28.923 12.882 37.476 0.29 6.907-10.174 14.932-7.422 34.184 11.719 15.531 15.444 17.177 26.358 11.916 79.05-5.9 59.128-4.946 72.517 6.51 91.136 14.436 23.462 20.38 50.488 16.44 74.752-10.13 62.415-27.888 96.924-62.522 121.505-21.752 15.44-98.724 61.228-125.287 74.532-60.364 30.236-99.118 32.036-152.875 7.107-38.04-17.639-49.628-21.804-89.357-32.118-31.529-8.182-50.762-18.921-66.882-37.345-27.925-31.916-48.223-82.476-56.131-139.825-3.174-23.035-2.235-27.656 12.09-59.392 23.072-51.108 27.552-77.32 23.284-136.192-2.941-40.589-2.708-43.261 4.495-51.49 7.166-8.181 30.119-20.551 55.427-29.867 7.885-2.9 19.174-7.286 25.088-9.738 34.604-14.367 85.248-24.5 140.8-28.178 9.011-0.596 18.458-1.25 20.992-1.454 12.774-1.024 79.15 0.269 91.658 1.787m58.87 30.804c22.636 4.107 38.912 14.275 38.912 24.308 0 7.943-6.62 8.204-19.505 0.768-29.995-17.311-60.498-13.07-93.135 12.95-19.361 15.437-28.127 6.98-10.404-10.04 23.299-22.377 55.678-33.147 84.132-27.986m-297.1 1.657c-41.632 3.71-83.526 38.612-66.632 55.508 6.415 6.413 16.023 5.194 31.52-4.001 34.218-20.304 60.755-22.47 87.988-7.189 19.264 10.811 32.256 8.082 32.256-6.776 0-22.82-42.086-41.38-85.133-37.542m40.284 12.137c19.881 5.145 36.145 17.705 31.84 24.58-2.213 3.536-7.72 2.55-19.488-3.483-26.754-13.72-55.209-11.098-89.346 8.233-21.417 12.126-30.218 2.762-10.186-10.84 25.845-17.553 61.555-25.126 87.18-18.49m-27.212 53.463c-11.326 2.66-27.843 15.168-37.028 28.042-23.414 32.811-18.696 92.109 10.795 135.685 9.255 13.676 10.21 16.896 5.906 19.91-7.915 5.544-30.722-1.767-53.176-17.048-18.921-12.877-27.123-13.88-35.515-4.35-16.172 18.374-5.427 64.095 26.432 112.49 26.586 40.381 41.651 49.459 81.295 48.983 22.293-0.267 24.497 0.297 34.41 8.793 24.81 21.271 36.11 25.196 72.734 25.262l26.112 0.049 11.776 3.556c25.46 7.685 48.46 4.045 71.137-11.257 13.753-9.28 17.004-10.357 34.317-11.381 32.952-1.948 50.831-13 64.474-39.857 8.053-15.851 9.771-18.048 21.988-28.098 28.21-23.215 39.587-51.26 39.89-98.348 0.15-23.652-0.328-26.862-4.767-31.918-9.331-10.624-20.782-9.011-40.607 5.727-38.692 28.759-76.864 42.475-76.864 27.617 0-3.666 1.428-6.561 9.551-19.346 34.832-54.82 31.552-129.48-6.479-147.62-34.824-16.61-77.358 9.175-99.804 60.498-9.078 20.757-10.455 21.532-38.37 21.563-28.904 0.033-29.332-0.253-36.912-24.553-14.659-46.996-46.84-72.489-81.295-64.4m22.19 8.582c23.872 6.215 43.699 29.645 52.006 61.45 6.989 26.762 11.525 29.632 45.801 28.99 29.322-0.551 32.433-2.489 43.566-27.129 19.057-42.184 47.557-63.79 78.551-59.553 43.136 5.9 48.602 85.102 9.843 142.643-12.93 19.195-13.916 29.445-3.266 33.894 13.598 5.684 50.644-9.377 83.845-34.086 27.88-20.749 37.522-12.35 34.455 30.026-2.765 38.195-12.826 59.47-38.21 80.799-13.039 10.957-14.531 12.872-21.891 28.114-12.007 24.87-28.4 34.987-59.725 36.864-17.81 1.065-20.529 1.948-34.906 11.323-22.592 14.73-41.12 18.132-64.422 11.822-22.725-6.157-22.633-6.144-39.936-4.787-29.174 2.288-45.548-2.89-67.584-21.376-15.265-12.805-15.096-12.752-41.472-12.857-37.921-0.15-49.528-6.84-72.768-41.935-26.55-40.09-38.746-76.101-32.686-96.504 4.004-13.486 13.645-13.901 30.702-1.324 25.702 18.954 62.205 25.756 69.1 12.877 3.333-6.234 1.4-11.377-10.217-27.177-20.67-28.109-30.375-69.084-24.113-101.809 6.09-31.843 37.709-56.94 63.327-50.265m-178.64 8.225c-12.457 6.766-17.482 27.873-14.748 61.929 3.057 38.042 6.021 46.341 14.241 39.875 9.352-7.358 14.46-30.321 14.449-64.963-0.01-33.5-3.435-42.547-13.942-36.841m158.879 11.482c-5.801 2.032-18.115 14.115-21.412 21.012-14.241 29.78-0.683 95.941 19.671 95.987 11.047 0.028 13.727-8.31 9.321-28.984-6.625-31.091-2.25-46.039 17.15-58.59 21.744-14.065 1.2-38.513-24.73-29.425m419.328-0.8c-5.87 2.377-7.048 6.365-10.138 34.351-4.574 41.464-4.4 50.322 1.13 56.89 7.006 8.329 13.178-0.117 18.746-25.658 1.165-5.35 3.76-16.64 5.765-25.088 4.078-17.178 4.242-23.995 0.74-30.774-3.292-6.366-11.858-11.494-16.243-9.72m-395.676 5.696c5.279 3.727 8.594 9.615 7.616 13.522-0.714 2.839-3.116 5.25-12.823 12.872-15.324 12.032-19.254 28.213-13.44 55.365 3.968 18.519 1.979 26.255-6.748 26.255-14.441 0-27.656-48.243-21.358-77.957 5.455-25.733 30.282-41.695 46.753-30.057m199.58-2.645c-10.57 3.229-17.408 10.015-17.408 17.283 0 5.368 0.43 6.147 9.797 17.718 12.245 15.127 13.491 26.642 5.146 47.475-7.263 18.125-5.886 27.932 4.183 29.821 25.53 4.79 44.792-80.553 23.608-104.617-6.648-7.554-16.223-10.457-25.326-7.68m15.137 3.705c19.856 8.294 22.336 53.75 4.864 89.172-13.888 28.158-31.639 18.274-19.822-11.038 3.438-8.53 4.362-12.207 4.716-18.796 0.673-12.524-1.554-17.81-14.6-34.65-11.643-15.03 5.998-32.56 24.842-24.688m-498.754 9.098c-21.599 7.706-25.954 38.031-14.05 97.879 12.235 61.522 33.296 93.614 67.236 102.456 29.476 7.678 37.763-11.25 24.558-56.102-5.033-17.1-5.555-20.232-7.319-44.047-0.868-11.7-1.797-22.656-2.068-24.346-0.272-1.69-1.2-12.908-2.069-24.927-2.306-31.969-6.136-40.14-22.133-47.219-10.937-4.836-35.249-6.871-44.155-3.694m30.98 8.25c22.467 4.727 24.457 9.102 28.22 62.104 3.21 45.222 3.963 51.464 8.217 67.95 10.576 40.988 8.776 54.124-7.39 53.978-13.6-0.123-28.729-9.165-38.687-23.122-29-40.638-43.692-144.018-22.533-158.53 6.182-4.24 18.87-5.177 32.174-2.38m706.207 4.069c-17.83 6.356-21.645 17.198-32.436 92.193-2.268 15.77-5.95 39.398-8.181 52.508-4.35 25.554-4.872 33.16-2.645 38.49 14.69 35.159 80.015-58.107 86.687-123.766 4.175-41.085-16.295-69.097-43.425-59.425m20.564 10.345c25.59 14.996 18.25 76.285-15.562 129.976-27.333 43.4-44.065 50.803-38.969 17.244 0.927-6.105 3.239-21.732 5.136-34.726 1.9-12.997 4.616-30.277 6.039-38.4a1126.73 1126.73 0 0 0 4.754-30.134c5.798-41.08 18.614-55.675 38.602-43.96M501.76 623.639c-69.19 5.327-104.822 57.71-73.595 108.19 20.603 33.309 53.978 53.116 91.54 54.327 54.004 1.743 89.437-17.073 96.863-51.436 12.721-58.857-39.265-115.638-102.52-111.977-1.408 0.08-6.938 0.484-12.288 0.896m46.856 12.186c57.669 14.318 82.977 99.305 38.136 128.079-20.472 13.135-64.878 17.992-93.184 10.186-27.026-7.452-59.034-38.722-66.957-65.413-8.402-28.3 14.344-62.597 47.537-71.677 17.042-4.662 57.83-5.305 74.468-1.175" fill="#DB4522" p-id="2018"></path><path d="M530.432 409.193c-2.534 0.205-11.98 0.858-20.992 1.454-55.552 3.679-106.196 13.811-140.8 28.178-5.914 2.452-17.203 6.838-25.088 9.738-25.308 9.316-48.261 21.686-55.427 29.868-7.203 8.228-7.436 10.9-4.495 51.489 4.268 58.872-0.212 85.084-23.283 136.192-14.326 31.736-15.265 36.357-12.091 59.392 7.908 57.35 28.206 107.91 56.13 139.825 16.12 18.424 35.354 29.163 66.883 37.345 39.729 10.314 51.318 14.48 89.357 32.118 53.757 24.929 92.51 23.13 152.875-7.107 26.563-13.304 103.535-59.092 125.287-74.532 34.634-24.58 52.393-59.09 62.523-121.505 3.94-24.264-2.005-51.29-16.44-74.752-11.457-18.619-12.411-32.008-6.51-91.136 5.26-52.692 3.614-63.606-11.917-79.05-19.252-19.141-27.277-21.893-34.184-11.72-8.553 12.593-15.347 12.539-37.476-0.29-26.926-15.61-53.898-10.99-83.855 14.365-16.497 13.962-26.356 15.634-33.106 5.617-13.118-19.464 30.105-54.73 78.029-63.66 19.217-3.581 19.118-6.615-0.443-13.407-19.27-6.691-88.459-11.353-124.977-8.422m-113.405 35.325c34.808 4.54 62.371 30.557 48.46 45.737-5.95 6.493-13.977 5.794-28.751-2.496-27.233-15.28-53.77-13.115-87.987 7.189-11.469 6.804-15.65 8.2-22.79 7.608-15.73-1.305-16.916-18.75-2.175-32.018 25.597-23.042 54.415-31.086 93.243-26.02m6.2 64.914c24.479 6.375 44.17 29.292 54.999 64.008 7.58 24.3 8.008 24.586 36.913 24.553 27.914-0.03 29.291-0.806 38.369-21.563 22.446-51.323 64.98-77.107 99.804-60.498 38.031 18.14 41.31 92.8 6.48 147.62-8.124 12.785-9.552 15.68-9.552 19.346 0 14.858 38.172 1.142 76.864-27.617 19.825-14.738 31.276-16.351 40.607-5.727 4.439 5.056 4.917 8.266 4.766 31.918-0.302 47.089-11.678 75.133-39.89 98.348-12.216 10.05-13.934 12.247-21.987 28.098-13.643 26.857-31.522 37.909-64.474 39.857-17.313 1.024-20.564 2.101-34.317 11.381-22.676 15.302-45.678 18.942-71.137 11.257l-11.776-3.556-26.112-0.049c-36.623-0.066-47.923-3.99-72.735-25.262-9.912-8.496-12.116-9.06-34.409-8.793-39.644 0.476-54.71-8.602-81.295-48.983-31.86-48.395-42.604-94.116-26.432-112.49 8.392-9.53 16.594-8.527 35.515 4.35 22.454 15.28 45.26 22.592 53.176 17.047 4.304-3.013 3.349-6.233-5.906-19.909-29.491-43.576-34.209-102.874-10.795-135.685 16.501-23.127 40.486-33.6 63.324-27.65m-279.355 50.38c-14.42 3.02-19.108 24.581-14.354 66.02 8.195 71.432 35.733 118.528 69.484 118.833 16.166 0.146 17.966-12.99 7.39-53.978-4.254-16.486-5.007-22.728-8.217-67.95-3.374-47.532-4.851-52.457-17.654-58.916-7.227-3.643-27.702-5.885-36.649-4.009m735.373 13.025c-11.505 4.258-16.855 15.957-21.12 46.17-1.193 8.448-3.333 22.008-4.754 30.134-1.423 8.123-4.14 25.403-6.04 38.4-1.896 12.994-4.208 28.62-5.135 34.726-9.057 59.646 54.07-21.875 67.766-87.513 8.087-38.756-7.641-70.46-30.717-61.917m-388.749 61.097c-49.956 5.584-78.7 47.598-59.141 86.449 8.817 17.513 28.849 37.58 47.877 47.956 26.276 14.334 81.846 12.04 107.52-4.436 44.841-28.774 19.533-113.761-38.136-128.08-9.897-2.457-43.318-3.542-58.12-1.889" fill="#F7B991" p-id="2019"></path><path d="M498.688 17.487c-16.932 0.84-28.096 2.757-35.73 6.142-2.596 1.15-9.787 3.417-15.982 5.04-6.195 1.623-15.872 5.103-21.504 7.732-5.632 2.631-11.853 5.365-13.824 6.08-18.335 6.64-73.024 43.392-106.496 71.564-10.284 8.653-29.855 25.373-30.72 26.24-0.282 0.285-5.12 4.18-10.752 8.66s-12.344 10.01-14.92 12.289c-2.572 2.278-8.038 6.907-12.147 10.286-9.436 7.76-27.673 23.951-33.349 29.604-16.73 16.668-38.4 45.279-38.4 50.703 0 0.604-0.45 1.101-1.001 1.101-1.347 0-13.908 26.112-17.49 36.352-1.574 4.506-3.99 10.496-5.366 13.312-2.675 5.468-5.227 15.629-6.418 25.541-0.401 3.346-2.286 10.936-4.188 16.868-5.097 15.892-5.614 21.043-5.598 55.895 0.015 35.487 0.63 41.738 5.59 56.965 1.905 5.84 3.79 13.614 4.191 17.275 0.402 3.66 1.398 9.838 2.212 13.724 1.969 9.4 1.523 10.399-5.52 12.365-6.637 1.85-21.88 7.849-29.168 11.479-12.137 6.042-23.293 21.65-29.143 40.768-4.833 15.798-2.54 89.134 3.315 106.028 2.043 5.89 4.357 14.625 5.148 19.412 1.905 11.55 4.207 20.014 6.659 24.494 1.103 2.017 3.643 8.425 5.642 14.241 3.236 9.413 9.086 21.827 15.66 33.237 16.435 28.526 50.304 49.956 83.727 52.974 16.466 1.487 15.199 0.701 17.767 11.02 1.223 4.913 3.763 12.156 5.642 16.098 1.881 3.942 4.487 9.933 5.79 13.312 1.304 3.38 3.193 7.363 4.199 8.852 1.003 1.49 3.697 6.306 5.985 10.701 23.045 44.275 66.816 80.932 106.952 89.57 5.63 1.21 13.506 3.502 17.508 5.091 4.001 1.59 10.224 3.436 13.829 4.107 16.102 2.987 27.356 7.165 59.292 22.008 8.166 3.794 18.995 8.397 24.064 10.23 5.069 1.83 11.98 4.562 15.36 6.067 19.725 8.783 89.876 9.682 113.152 1.446 4.787-1.694 13.773-4.708 19.968-6.697 17.395-5.586 57.137-25.84 90.624-46.19 4.224-2.567 18.258-10.849 31.186-18.406 48.84-28.552 73.024-47.652 91.077-71.931 2.304-3.098 4.452-5.862 4.772-6.144 1.508-1.331 11.937-21.896 14.789-29.166 3.75-9.562 4.08-9.813 21.443-16.4 21.775-8.26 31.529-15.426 47.406-34.818a2366.344 2366.344 0 0 1 9.625-11.702c2.527-3.023 11.41-16.596 16.799-25.674 2.173-3.66 4.513-7.347 5.202-8.192 2.744-3.372 15.926-30.515 17.393-35.817 0.86-3.11 2.918-8.42 4.574-11.799 3.564-7.28 6.626-20.997 7.545-33.792 0.604-8.428 2.017-16.842 4.649-27.648 1.448-5.962 1.262-17.175-0.374-22.236-1.644-5.082-2.931-10.396-5.253-21.68-3.943-19.16-17.065-37.536-35.172-49.248-8.927-5.775-9.221-7.503-3.653-21.532 10.99-27.694 10.619-102.484-0.625-125.76-1.103-2.283-2.007-5.245-2.007-6.579 0-5.66-4.47-23.311-7.647-30.193-1.889-4.096-3.768-9.287-4.178-11.54-0.898-4.961-5.342-17.615-7.186-20.467-0.734-1.134-2.977-6.986-4.984-13.005-2.007-6.021-4.552-12.477-5.657-14.351-1.106-1.874-2.96-6.482-4.122-10.243-1.912-6.195-8.003-19.56-15.068-33.07-1.472-2.816-4.729-9.267-7.232-14.336-14.843-30.036-49.68-72.25-85.161-103.199-5.307-4.628-10.783-9.495-12.168-10.81-5.57-5.297-19.17-15.514-40.118-30.142-30.249-21.123-82.112-45.74-107.095-50.831-5.59-1.14-12.935-3.198-16.32-4.573-16.222-6.592-57.3-9.164-107-6.702m72.192 52.094c24.384 4.377 37.028 7.82 61.952 16.883 58.657 21.327 138.778 86.216 176.77 143.165 29.743 44.585 65.626 140.934 72.123 193.66 3.459 28.054-2.406 66.395-11.65 76.167-7.445 7.867-14.293 3.512-26.279-16.71-42.08-71-91.832-117.526-166.899-156.077-30.172-15.496-30.34-15.86-24.169-51.725 12.598-73.231-7.047-112.369-72.955-145.329C480.31 79.872 378.02 159.834 402.4 268.273c6.343 28.219 4.493 32.04-21.755 44.925-48.571 23.839-104.264 76.178-149.983 140.946-22.643 32.077-24.696 34.291-31.795 34.301-19.387 0.02-28.923-82.736-16.512-143.283 10.573-51.566 35.17-89.398 85.978-132.229a56038.775 56038.775 0 0 0 26.508-22.356c8.73-7.368 47.281-39.424 54.344-45.187 58.289-47.557 109.389-72.724 157.978-77.8 15.086-1.578 49.897-0.49 63.718 1.99m-31.603 66.205c33.75 6.771 77.366 36.278 89.357 60.452 12.382 24.965 10.478 68.979-2.983 68.979-8.548 0-17.252-17.539-27.192-54.784-8.812-33.019-21.921-32.814-40.891 0.643-8.358 14.74-16.78 24.353-21.555 24.604-11.748 0.62-16.13-3.922-25.344-26.279-9.938-24.117-16.76-30.789-27.769-27.156-7.009 2.314-16.348 19.074-33.105 59.42-7.622 18.35-12.27 24.576-18.345 24.576-16.4 0-18.427-43.484-3.513-75.308 19.275-41.131 65.956-64.253 111.34-55.147m-45.996 90.488c3.763 2.294 6.3 5.704 15.647 21.028 18.655 30.584 29.235 32.67 43.453 8.566 18.256-30.948 28.91-31.247 40.006-1.127 15.224 41.344 8.98 46.216-45.41 35.42-12.784-2.536-14.297-2.634-23.552-1.52-62.679 7.537-72.883 1.446-58.388-34.847 10.657-26.685 17.953-33.794 28.244-27.52m41.523 87.063c71.366 3.792 141.343 30.457 197.356 75.203 28.541 22.8 59.392 58.207 59.392 68.162 0 6.388-7.657 2.182-33.073-18.168-58.7-46.996-99.317-59.73-190.671-59.773-101.396-0.052-182.07 15.23-257.475 48.763-23.636 10.51-27.709 11.271-27.709 5.163 0-16.312 63.721-75.95 102.106-95.562 26.688-13.635 65.193-22.108 107.814-23.724 10.982-0.417 20.89-0.819 22.016-0.893 1.126-0.077 10.235 0.297 20.244 0.83m53.484 86.008c68.62 3.822 99.254 13.27 134.656 41.53 3.66 2.924 11.264 8.487 16.896 12.36 21.087 14.51 39.839 32.118 44.577 41.849 6.098 12.533 6.646 43.22 1.587 89.108-4.334 39.352-3.742 43.725 9.92 73.254 3.871 8.369 11.108 29.817 13.538 40.128 5.755 24.402-6.546 82.916-24.274 115.482-17.897 32.876-36.035 46.733-140.068 107.003-81.95 47.475-124.567 51.77-193.866 19.533-24.935-11.597-38.894-17.242-49.546-20.027-64.05-16.755-81.02-24.528-101.067-46.285-25.456-27.63-43.207-65.193-55.56-117.568-11.445-48.52-11.386-49.321 6.516-90.975 25.323-58.913 28.815-82.895 22.31-153.249-1.64-17.772-1.05-25.157 2.593-32.294 11.021-21.604 81.851-54.403 140.388-65.009 7.99-1.446 17.57-3.267 21.284-4.045 12.488-2.616 28.08-4.531 58.673-7.204 52.697-4.603 64.78-5.076 91.443-3.591m63.22 42.112c-27.582 4.595-66.382 31.173-63.32 43.371 1.454 5.793 7.475 4.206 19.044-5.017 32.637-26.02 63.14-30.262 93.135-12.951 12.885 7.436 19.505 7.175 19.505-0.768 0-15.701-38.566-29.6-68.365-24.635m-261.645 12.195c-29.301 4.637-63.183 22.585-63.203 33.48-0.01 6.2 6.942 5.445 20.49-2.224 34.137-19.331 62.592-21.952 89.346-8.233 14.728 7.552 21.86 7.229 19.822-0.894-3.425-13.647-40.993-26.155-66.455-22.129m9.582 64.07c-19.468 5.235-39.45 28.198-43.65 50.165-6.262 32.725 3.443 73.7 24.113 101.809 11.617 15.8 13.55 20.943 10.217 27.177-6.895 12.88-43.398 6.077-69.1-12.877-17.057-12.577-26.698-12.162-30.702 1.324-6.06 20.403 6.136 56.414 32.686 96.504 23.24 35.095 34.847 41.784 72.768 41.935 26.376 0.105 26.207 0.052 41.472 12.857 22.036 18.485 38.41 23.664 67.584 21.376 17.303-1.357 17.21-1.37 39.936 4.787 23.301 6.31 41.83 2.908 64.422-11.822 14.377-9.375 17.096-10.258 34.906-11.323 31.324-1.877 47.718-11.994 59.725-36.864 7.36-15.242 8.852-17.157 21.89-28.114 25.385-21.33 35.446-42.604 38.21-80.799 3.068-42.375-6.573-50.775-34.454-30.026-33.2 24.71-70.247 39.77-83.845 34.086-10.65-4.449-9.664-14.7 3.266-33.894 34.056-50.557 34.775-122.286 1.398-139.2-30.11-15.258-68.344 8.635-89.792 56.11-11.133 24.64-14.244 26.578-43.566 27.128-34.276 0.643-38.812-2.227-45.801-28.989-10.954-41.938-42.731-69.133-71.683-61.35m-149.721 9.187c6.707 8.53 6.638 60.314-0.11 82.371-7.217 23.58-17.73 26.824-21.049 6.495-1.984-12.16-4.541-48.707-3.904-55.783 2.033-22.561 17.39-42.834 25.063-33.083m169.352 10.105c17.48 6.236 19.827 20.16 5.015 29.74-19.4 12.551-23.775 27.499-17.15 58.59 4.406 20.675 1.726 29.012-9.32 28.984-17.094-0.038-31.883-54.151-23.435-85.747 6.16-23.045 27.236-37.867 44.89-31.567m409.76 2.457c9.337 6.377 10.62 15.378 5.356 37.553-2.004 8.448-4.6 19.738-5.765 25.088-5.568 25.541-11.74 33.987-18.747 25.659-5.53-6.57-5.703-15.427-1.129-56.891 3.9-35.315 7.166-40.371 20.286-31.409m-189.31 1.076c18.517 8.412 23.097 41.958 10.996 80.509-7.988 25.452-22.413 37.88-32.054 27.617-4.552-4.843-4.088-12.275 1.659-26.616 8.345-20.833 7.099-32.348-5.146-47.475-9.367-11.571-9.797-12.35-9.797-17.718 0-12.6 20.787-22.474 34.342-16.317m-468.439 11.916c25.577 5.381 31.537 14.244 34.176 50.834 0.868 12.02 1.797 23.237 2.069 24.927 0.271 1.69 1.2 12.646 2.068 24.346 1.764 23.815 2.286 26.946 7.32 44.047 13.204 44.851 4.917 63.78-24.559 56.102-33.94-8.842-55.001-40.934-67.236-102.456-16.007-80.489-2.961-108.132 46.162-97.8m723.874 12.363c35.581 10.567 33.218 79.232-4.862 141.222-24.53 39.933-42.288 55.841-52.966 47.444-6.856-5.393-7.086-11.78-1.587-44.088 2.232-13.11 5.913-36.738 8.181-52.508 8.574-59.587 10.847-69.824 17.782-80.041 8.14-11.996 19.638-16.13 33.452-12.03m-367.424 58.806c60.395 5.727 100.884 56.246 89.031 111.089-7.426 34.363-42.86 53.179-96.862 51.436-31.773-1.024-50.374-9.506-74.778-34.09-30.684-30.911-36.733-61.724-17.708-90.173 17.053-25.492 41.534-36.531 86.828-39.15 1.408-0.082 7.478 0.317 13.489 0.888" fill="#180F0B" p-id="2020"></path><path d="M499.827 138.798c-38.198 8.287-66.096 34.76-75.39 71.532-6.52 25.802-3.069 50.278 7.087 50.278 5.614 0 8.215-3.653 17.89-25.134 20.889-46.395 25.492-54.006 34.04-56.307 11.379-3.065 20.106 5.711 29.944 30.11 12.818 31.793 23.367 31.709 42.603-0.343 19.935-33.22 33.83-35.233 42.655-6.182 9.009 29.66 11.197 36.152 14.664 43.52 10.867 23.091 22.292 12.595 20.004-18.373-2.274-30.756-12.43-44.83-51.18-70.91-24.532-16.512-56.996-23.685-82.317-18.19m-20.585 93.516c-6.082 6.392-17.418 33.948-17.418 42.337 0 12.46 7.13 15.045 36.352 13.182 17.661-1.127 22.548-1.94 29.44-4.898 4.861-2.086 4.813-3.059-0.384-8.04-6.664-6.385-15.629-18.036-22.569-29.328-11.384-18.527-17.413-21.67-25.42-13.253m88.463 7.153c-2.586 1.891-6.523 7.037-11.162 14.586-3.942 6.416-10.296 14.964-14.118 18.996l-6.95 7.331 2.854 1.977c4.894 3.387 11.192 5.33 24.14 7.442 33.918 5.534 39.447 0.79 30.316-25.992-8.988-26.365-14.718-31.926-25.08-24.34M398.848 540.992c-10.37 4.98-19.773 18.002-22.59 31.29-6.297 29.715 6.918 77.958 21.359 77.958 8.727 0 10.716-7.736 6.748-26.255-5.814-27.152-1.884-43.333 13.44-55.365 13.655-10.722 14.935-12.885 11.522-19.487-5-9.68-19.31-13.502-30.479-8.141m222.48 2.337c-13.318 4.096-16.702 13.98-8.441 24.645 13.046 16.84 15.273 22.126 14.6 34.65-0.354 6.59-1.278 10.266-4.716 18.796-6.886 17.08-5.453 26.772 3.955 26.772 19.334 0 35.815-68.26 22.659-93.844-5.558-10.811-15.736-14.808-28.058-11.019" fill="#CDDDDD" p-id="2021"></path></svg>